<svg width="24" height="25" viewBox="0 0 24 25" fill="none" xmlns="http://www.w3.org/2000/svg">
<path d="M11 2.8685C9.02219 2.8685 7.08879 3.45499 5.4443 4.5538C3.79981 5.65262 2.51809 7.2144 1.76121 9.04167C1.00433 10.8689 0.806299 12.8796 1.19215 14.8194C1.578 16.7592 2.53041 18.541 3.92894 19.9396C5.32746 21.3381 7.10929 22.2905 9.0491 22.6764C10.9889 23.0622 12.9996 22.8642 14.8268 22.1073C16.6541 21.3504 18.2159 20.0687 19.3147 18.4242C20.4135 16.7797 21 14.8463 21 12.8685C21 11.5553 20.7413 10.2549 20.2388 9.04167C19.7363 7.82841 18.9997 6.72602 18.0711 5.79743C17.1425 4.86885 16.0401 4.13225 14.8268 3.6297C13.6136 3.12716 12.3132 2.8685 11 2.8685V2.8685ZM11 20.8685C9.41775 20.8685 7.87104 20.3993 6.55544 19.5203C5.23985 18.6412 4.21447 17.3918 3.60897 15.93C3.00347 14.4682 2.84504 12.8596 3.15372 11.3078C3.4624 9.75593 4.22433 8.33047 5.34315 7.21165C6.46197 6.09283 7.88743 5.3309 9.43928 5.02222C10.9911 4.71354 12.5997 4.87196 14.0615 5.47746C15.5233 6.08296 16.7727 7.10834 17.6518 8.42394C18.5308 9.73953 19 11.2862 19 12.8685C19 14.9902 18.1572 17.0251 16.6569 18.5254C15.1566 20.0256 13.1217 20.8685 11 20.8685V20.8685ZM11 6.8685C10.7348 6.8685 10.4804 6.97386 10.2929 7.16139C10.1054 7.34893 10 7.60328 10 7.8685V12.7985L8.63 15.1685C8.4974 15.3992 8.46188 15.6732 8.53127 15.9301C8.60066 16.1871 8.76927 16.4059 9 16.5385C9.23074 16.6711 9.50471 16.7066 9.76163 16.6372C10.0186 16.5678 10.2374 16.3992 10.37 16.1685L11.87 13.5685C11.9662 13.3877 12.0046 13.1818 11.98 12.9785L12 12.8685V7.8685C12 7.60328 11.8946 7.34893 11.7071 7.16139C11.5196 6.97386 11.2652 6.8685 11 6.8685Z" fill="#666666"/>
</svg>
