<svg width="21" height="21" viewBox="0 0 21 21" fill="none" xmlns="http://www.w3.org/2000/svg">
<g clip-path="url(#clip0_1_1304)">
<path d="M20.2302 6.63915C20.1833 5.57647 20.0115 4.84589 19.7653 4.21283C19.5114 3.54086 19.1207 2.93924 18.6088 2.43911C18.1087 1.9312 17.5031 1.53653 16.8389 1.28654C16.2022 1.04037 15.4754 0.868521 14.4127 0.821667C13.3421 0.770846 13.0022 0.759094 10.2868 0.759094C7.57147 0.759094 7.23159 0.770846 6.16495 0.817699C5.10227 0.864553 4.37169 1.03655 3.73879 1.28257C3.06666 1.53653 2.46504 1.92723 1.96491 2.43911C1.457 2.93924 1.06248 3.54483 0.812343 4.20902C0.566171 4.84589 0.394324 5.5725 0.34747 6.63518C0.296648 7.7058 0.284897 8.04567 0.284897 10.761C0.284897 13.4764 0.296648 13.8163 0.343502 14.8829C0.390356 15.9456 0.562356 16.6762 0.808528 17.3093C1.06248 17.9812 1.457 18.5829 1.96491 19.083C2.46504 19.5909 3.07063 19.9856 3.73482 20.2356C4.37169 20.4817 5.0983 20.6536 6.16113 20.7004C7.22763 20.7474 7.56766 20.759 10.283 20.759C12.9984 20.759 13.3383 20.7474 14.4049 20.7004C15.4676 20.6536 16.1982 20.4817 16.8311 20.2356C18.1752 19.7159 19.2379 18.6532 19.7575 17.3093C20.0036 16.6724 20.1756 15.9456 20.2224 14.8829C20.2693 13.8163 20.281 13.4764 20.281 10.761C20.281 8.04567 20.277 7.7058 20.2302 6.63915ZM18.4292 14.8048C18.3861 15.7816 18.222 16.309 18.0853 16.6606C17.7492 17.5319 17.0577 18.2234 16.1864 18.5595C15.8348 18.6963 15.3035 18.8603 14.3306 18.9032C13.2757 18.9502 12.9593 18.9618 10.2908 18.9618C7.6223 18.9618 7.30195 18.9502 6.25087 18.9032C5.27412 18.8603 4.74667 18.6963 4.39504 18.5595C3.96146 18.3993 3.56679 18.1453 3.24644 17.8132C2.91435 17.4889 2.66039 17.0982 2.50014 16.6646C2.3634 16.313 2.19933 15.7816 2.15645 14.8088C2.10944 13.7539 2.09784 13.4374 2.09784 10.7688C2.09784 8.10031 2.10944 7.77997 2.15645 6.72904C2.19933 5.75229 2.3634 5.22484 2.50014 4.87321C2.66039 4.43947 2.91435 4.04495 3.25041 3.72446C3.57457 3.39236 3.96527 3.1384 4.39901 2.97831C4.75064 2.84156 5.28206 2.6775 6.25484 2.63446C7.30973 2.58761 7.62626 2.57586 10.2946 2.57586C12.9671 2.57586 13.2835 2.58761 14.3346 2.63446C15.3113 2.6775 15.8388 2.84156 16.1904 2.97831C16.624 3.1384 17.0187 3.39236 17.339 3.72446C17.6711 4.04877 17.9251 4.43947 18.0853 4.87321C18.222 5.22484 18.3861 5.7561 18.4292 6.72904C18.476 7.78394 18.4878 8.10031 18.4878 10.7688C18.4878 13.4374 18.476 13.7499 18.4292 14.8048Z" fill="#005983"/>
<path d="M10.2872 5.62323C7.45075 5.62323 5.14943 7.9244 5.14943 10.761C5.14943 13.5975 7.45075 15.8987 10.2872 15.8987C13.1237 15.8987 15.4249 13.5975 15.4249 10.761C15.4249 7.9244 13.1237 5.62323 10.2872 5.62323ZM10.2872 14.0937C8.44704 14.0937 6.95444 12.6012 6.95444 10.761C6.95444 8.92069 8.44704 7.42824 10.2872 7.42824C12.1274 7.42824 13.6199 8.92069 13.6199 10.761C13.6199 12.6012 12.1274 14.0937 10.2872 14.0937V14.0937Z" fill="#005983"/>
<path d="M16.8277 5.42019C16.8277 6.08255 16.2906 6.61961 15.6281 6.61961C14.9657 6.61961 14.4287 6.08255 14.4287 5.42019C14.4287 4.75767 14.9657 4.22076 15.6281 4.22076C16.2906 4.22076 16.8277 4.75767 16.8277 5.42019V5.42019Z" fill="#005983"/>
</g>
<defs>
<clipPath id="clip0_1_1304">
<rect width="20" height="20" fill="white" transform="translate(0.250122 0.759125)"/>
</clipPath>
</defs>
</svg>
