<svg width="24" height="25" viewBox="0 0 24 25" fill="none" xmlns="http://www.w3.org/2000/svg">
<g id="Icon/Line/Location">
<path id="Vector" d="M12 2.8685C9.87827 2.8685 7.84344 3.71135 6.34315 5.21165C4.84285 6.71194 4 8.74677 4 10.8685C4 16.2685 11.05 22.3685 11.35 22.6285C11.5311 22.7834 11.7616 22.8686 12 22.8686C12.2384 22.8686 12.4689 22.7834 12.65 22.6285C13 22.3685 20 16.2685 20 10.8685C20 8.74677 19.1571 6.71194 17.6569 5.21165C16.1566 3.71135 14.1217 2.8685 12 2.8685ZM12 20.5185C9.87 18.5185 6 14.2085 6 10.8685C6 9.2772 6.63214 7.75108 7.75736 6.62586C8.88258 5.50064 10.4087 4.8685 12 4.8685C13.5913 4.8685 15.1174 5.50064 16.2426 6.62586C17.3679 7.75108 18 9.2772 18 10.8685C18 14.2085 14.13 18.5285 12 20.5185ZM12 6.8685C11.2089 6.8685 10.4355 7.1031 9.77772 7.54262C9.11992 7.98215 8.60723 8.60686 8.30448 9.33777C8.00173 10.0687 7.92252 10.8729 8.07686 11.6489C8.2312 12.4248 8.61216 13.1375 9.17157 13.6969C9.73098 14.2563 10.4437 14.6373 11.2196 14.7916C11.9956 14.946 12.7998 14.8668 13.5307 14.564C14.2616 14.2613 14.8864 13.7486 15.3259 13.0908C15.7654 12.433 16 11.6596 16 10.8685C16 9.80763 15.5786 8.79022 14.8284 8.04007C14.0783 7.28993 13.0609 6.8685 12 6.8685ZM12 12.8685C11.6044 12.8685 11.2178 12.7512 10.8889 12.5314C10.56 12.3117 10.3036 11.9993 10.1522 11.6339C10.0009 11.2684 9.96126 10.8663 10.0384 10.4783C10.1156 10.0904 10.3061 9.73399 10.5858 9.45429C10.8655 9.17458 11.2219 8.9841 11.6098 8.90693C11.9978 8.82976 12.3999 8.86937 12.7654 9.02074C13.1308 9.17212 13.4432 9.42846 13.6629 9.75736C13.8827 10.0863 14 10.4729 14 10.8685C14 11.3989 13.7893 11.9076 13.4142 12.2827C13.0391 12.6578 12.5304 12.8685 12 12.8685Z" fill="#666666"/>
</g>
</svg>
