<svg width="276" height="112" viewBox="0 0 276 112" fill="none" xmlns="http://www.w3.org/2000/svg">
<g clip-path="url(#clip0_71_1487)">
<path d="M47.7531 21.6691C46.8738 24.1251 47.384 24.3091 49.0341 26.2998C49.2478 24.6526 49.7319 23.0516 50.467 21.561C51.7974 22.7852 53.3789 23.7066 55.102 24.2614C56.8251 24.8162 58.6486 24.9911 60.4462 24.7739C62.2438 24.5568 63.9725 23.9528 65.5128 23.0039C67.053 22.0549 68.3679 20.7837 69.3663 19.2781C72.5144 14.3229 72.623 6.84672 71.4832 0.701363C65.0242 2.03214 58.1309 -0.640231 51.8673 1.621C46.1682 3.66585 42.7053 11.8669 47.5252 18.2935C51.965 10.4604 60.2912 8.88075 67.4666 5.92708C62.6034 8.50207 56.7414 10.4712 52.5404 14.2688C50.3623 16.3089 48.7186 18.8497 47.7531 21.6691Z" fill="#8DC63F"/>
<path d="M89.156 39.023C85.0418 33.2238 76.6723 26.6349 60.1611 28.2037C57.9702 28.4333 55.7951 28.7946 53.6479 29.2856C51.5782 29.7797 49.4731 30.1125 47.3517 30.281C45.2302 30.1125 43.1252 29.7797 41.0555 29.2856C38.9084 28.7942 36.7333 28.4328 34.5422 28.2037C18.042 26.689 9.6724 33.2779 5.55818 39.023C1.8239 44.292 -0.10837 51.2271 0.000184741 59.0927C0.179348 66.5506 1.88989 73.8929 5.02627 80.6664C8.78225 88.8241 16.609 105.778 27.1063 109.997C31.1228 111.61 35.8666 110.95 40.046 110.376C41.7206 110.103 43.4096 109.926 45.1046 109.846C45.7234 109.846 46.4073 109.846 47.1889 109.9H47.5362C48.3178 109.846 49.0017 109.835 49.6205 109.846C51.3154 109.927 53.0043 110.104 54.6791 110.376C56.9742 110.745 59.2917 110.958 61.6158 111.014C63.6637 111.062 65.7016 110.717 67.6188 109.997C78.1161 105.778 85.9428 88.8241 89.6988 80.6664C92.8352 73.8929 94.5457 66.5506 94.7249 59.0927C94.8226 51.2271 92.9012 44.292 89.156 39.023Z" fill="#8DC63F"/>
<path d="M66.1098 37.7901C64.4163 36.7731 62.0281 38.2553 62.6143 40.192C63.0051 41.4579 63.3308 42.7129 63.6022 43.9787C58.8387 41.0757 53.834 38.5853 48.6433 36.5351C48.3078 36.4259 47.9514 36.396 47.6022 36.4475C47.253 36.4991 46.9206 36.6307 46.6312 36.8321C46.3418 37.0335 46.1032 37.2991 45.9344 37.6081C45.7655 37.917 45.6709 38.2608 45.6581 38.6124C45.6581 39.1966 45.6581 39.7917 45.6581 40.3759L28.2568 34.8797C27.8233 34.7377 27.357 34.7292 26.9186 34.8554C26.4802 34.9816 26.0902 35.2366 25.7995 35.5871C25.5088 35.9376 25.3309 36.3673 25.289 36.8202C25.2471 37.273 25.3431 37.7279 25.5646 38.1255C26.3273 39.327 27.0161 40.5735 27.6272 41.8582C24.5721 42.4015 21.6342 43.4667 18.9428 45.0066C17.0974 46.0885 17.575 48.3714 19.4204 49.1612C20.0175 49.41 20.6254 49.648 21.2225 49.8644C11.941 57.9464 5.35178 71.2109 6.28535 83.5449C8.36176 88.0228 10.7184 92.3663 13.3414 96.5497C11.7456 87.1044 11.2463 76.415 18.3349 68.5818C33.2177 47.7547 66.392 49.7238 78.8866 71.6761C84.1081 78.7952 83.8476 87.3424 82.1433 95.3487C84.2172 91.8806 86.1121 88.3092 87.8207 84.6484C88.0655 82.6994 88.196 80.7378 88.2115 78.7736C88.32 62.6204 80.6127 46.5213 66.1098 37.7901Z" fill="#005C87"/>
<path d="M78.8867 71.6653C66.3921 49.6697 33.2178 47.7006 18.3458 68.5277C11.2572 76.3609 11.7566 87.0503 13.3523 96.4956C17.13 102.403 21.7762 107.845 27.117 109.998C31.1336 111.61 35.8774 110.95 40.0567 110.377C41.7314 110.104 43.4204 109.927 45.1154 109.847C45.7341 109.847 46.418 109.847 47.1996 109.901H47.547C48.3286 109.847 49.0125 109.836 49.6313 109.847C51.3262 109.928 53.0151 110.105 54.6899 110.377C56.985 110.745 59.3025 110.959 61.6265 111.015C63.6744 111.062 65.7124 110.717 67.6296 109.998C73.3287 107.704 78.2462 101.656 82.1433 95.2946C83.8476 87.2884 84.1082 78.7411 78.8867 71.6653ZM27.0302 80.7535C27.4397 80.4609 27.9386 80.3194 28.4414 80.3532C28.7867 80.3817 29.1193 80.4956 29.4093 80.6845C29.6993 80.8734 29.9375 81.1314 30.1023 81.4351C30.3242 81.8762 30.3944 82.3778 30.3022 82.8627C30.21 83.3475 29.9605 83.7887 29.5921 84.1183C29.3578 84.3343 29.0768 84.4938 28.7709 84.5845C28.4649 84.6751 28.1422 84.6946 27.8275 84.6413C27.5128 84.5879 27.2147 84.4633 26.956 84.277C26.6973 84.0906 26.485 83.8476 26.3354 83.5665C26.1789 83.3003 26.093 82.9987 26.0858 82.6902C26.0403 82.3111 26.1051 81.927 26.2726 81.5836C26.44 81.2402 26.703 80.9521 27.0302 80.7535ZM28.8213 92.6547C28.4837 92.7051 28.142 92.7232 27.8009 92.7088C26.5537 92.7587 25.3075 92.5865 24.1209 92.2003C22.2864 91.6053 21.9498 89.7984 23.2742 88.4352C25.1631 86.412 30.7753 86.0441 31.4484 89.5171C31.4827 89.8931 31.4421 90.2721 31.3291 90.6324C31.216 90.9927 31.0327 91.3272 30.7896 91.6167C30.5466 91.9062 30.2485 92.145 29.9126 92.3194C29.5767 92.4939 29.2095 92.6004 28.8322 92.6331L28.8213 92.6547ZM56.3291 89.4089C55.8699 91.1453 54.7812 92.6505 53.2735 93.6336C51.7658 94.6168 49.9461 95.0081 48.1658 94.732C46.5031 94.452 45.0032 93.5687 43.955 92.2523C42.9068 90.9359 42.3844 89.2795 42.4884 87.6021C42.4984 87.4473 42.5587 87.3 42.6602 87.1824C42.7617 87.0648 42.8988 86.9833 43.0509 86.9503C43.203 86.9173 43.3617 86.9345 43.5031 86.9994C43.6444 87.0643 43.7608 87.1734 43.8344 87.31C44.9743 89.6686 45.6039 91.8216 48.5566 92.2436C49.1948 92.4013 49.8616 92.405 50.5016 92.2545C51.1416 92.104 51.7364 91.8035 52.2366 91.378C53.0829 90.5121 53.7929 89.5236 54.3425 88.446C54.4678 88.182 54.6931 87.9784 54.9689 87.88C55.2448 87.7816 55.5486 87.7965 55.8134 87.9213C56.0783 88.0461 56.2826 88.2707 56.3813 88.5456C56.4801 88.8205 56.4652 89.1233 56.3399 89.3873L56.3291 89.4089ZM66.7395 83.6314C67.1068 83.3133 67.5771 83.1381 68.0638 83.1381C68.5505 83.1381 69.0208 83.3133 69.3882 83.6314C69.5957 83.7784 69.7665 83.9708 69.8875 84.194L70.0178 84.5511C70.0866 84.9247 70.0131 85.3105 69.8116 85.633C69.5811 85.9679 69.2766 86.2455 68.9214 86.4445C68.4699 86.6901 67.9394 86.7484 67.4451 86.6067C67.2084 86.5295 66.9903 86.4043 66.8046 86.2389C66.5913 86.0737 66.4187 85.862 66.3002 85.6201C66.1816 85.3782 66.1202 85.1124 66.1207 84.8432C66.1561 84.3522 66.3819 83.8943 66.7503 83.5665L66.7395 83.6314ZM72.3843 93.0983C71.657 95.4461 67.7599 95.7815 65.9579 94.3534C65.4089 94.0761 64.9582 93.6381 64.6661 93.0983C63.8953 91.4971 65.3717 90.3718 66.7286 89.9283C68.8129 89.2142 73.4047 89.8633 72.3951 93.0767L72.3843 93.0983Z" fill="#FAB393"/>
<path d="M26.4005 83.5659C26.55 83.847 26.7623 84.09 27.021 84.2764C27.2797 84.4627 27.5778 84.5873 27.8925 84.6406C28.2072 84.6939 28.5299 84.6745 28.8359 84.5839C29.1418 84.4932 29.4228 84.3337 29.6571 84.1177C30.0255 83.7881 30.2751 83.3469 30.3672 82.862C30.4594 82.3772 30.3892 81.8756 30.1673 81.4345C30.0025 81.1308 29.7643 80.8728 29.4743 80.6839C29.1843 80.495 28.8517 80.3811 28.5064 80.3526C28.0037 80.3187 27.5047 80.4603 27.0952 80.7529C26.778 80.9585 26.526 81.2497 26.3684 81.5926C26.2108 81.9354 26.1541 82.3159 26.2051 82.6895C26.1956 82.9934 26.2628 83.2947 26.4005 83.5659Z" fill="#231F20"/>
<path d="M66.8154 86.3147C67.001 86.4801 67.2191 86.6053 67.4558 86.6825C67.9502 86.8242 68.4807 86.7659 68.9322 86.5203C69.2873 86.3213 69.5919 86.0437 69.8223 85.7088C70.0238 85.3863 70.0974 85.0005 70.0286 84.6269L69.8983 84.2698C69.7773 84.0466 69.6065 83.8541 69.399 83.7072C69.0316 83.3891 68.5613 83.2139 68.0746 83.2139C67.5879 83.2139 67.1176 83.3891 66.7502 83.7072C66.3782 84.0447 66.1557 84.5155 66.1315 85.0164C66.1453 85.269 66.2136 85.5157 66.3316 85.7397C66.4496 85.9637 66.6146 86.1598 66.8154 86.3147Z" fill="#231F20"/>
<path d="M54.3531 88.4237C53.8035 89.5013 53.0935 90.4898 52.2472 91.3557C51.747 91.7812 51.1522 92.0816 50.5122 92.2321C49.8722 92.3827 49.2054 92.3789 48.5672 92.2212C45.6145 91.7993 44.9849 89.6463 43.845 87.2877C43.7714 87.151 43.6551 87.042 43.5137 86.9771C43.3723 86.9122 43.2136 86.895 43.0615 86.928C42.9094 86.961 42.7723 87.0424 42.6708 87.16C42.5693 87.2776 42.509 87.425 42.499 87.5798C42.395 89.2572 42.9174 90.9136 43.9656 92.23C45.0139 93.5464 46.5137 94.4297 48.1764 94.7097C49.9567 94.9858 51.7764 94.5944 53.2841 93.6113C54.7918 92.6282 55.8805 91.123 56.3397 89.3866C56.4031 89.2566 56.4402 89.1154 56.4489 88.9711C56.4576 88.8268 56.4377 88.6822 56.3903 88.5456C56.343 88.4089 56.269 88.2829 56.1728 88.1748C56.0766 88.0666 55.9599 87.9784 55.8295 87.9152C55.699 87.852 55.5574 87.815 55.4126 87.8063C55.2678 87.7976 55.1227 87.8175 54.9856 87.8647C54.8485 87.9119 54.7221 87.9856 54.6136 88.0815C54.5051 88.1774 54.4166 88.2937 54.3531 88.4237Z" fill="#231F20"/>
<path d="M23.285 88.4126C22.0149 89.7758 22.2971 91.5826 24.1317 92.1777C25.3183 92.5639 26.5645 92.7361 27.8117 92.6862C28.1528 92.7006 28.4945 92.6825 28.8321 92.6321C29.2155 92.6011 29.5887 92.4938 29.9297 92.3166C30.2707 92.1393 30.5726 91.8957 30.8176 91.6002C31.0625 91.3046 31.2454 90.9631 31.3556 90.5959C31.4658 90.2286 31.501 89.8431 31.4591 89.462C30.7861 86.0215 25.1738 86.3894 23.285 88.4126Z" fill="#F37021"/>
<path d="M66.7392 89.9068C65.3823 90.3504 63.9059 91.4756 64.6767 93.0768C64.9688 93.6167 65.4196 94.0546 65.9685 94.3319C67.7705 95.76 71.6676 95.4138 72.3949 93.0768C73.4045 89.8635 68.8126 89.2144 66.7392 89.9068Z" fill="#F37021"/>
<path d="M110.617 105.442L117.836 86.7466H121.396L127.617 102.564L129.115 105.442H124.718L123.633 102.64H116.381L116.142 101.418L114.601 105.41L110.617 105.442ZM120.05 93.4545L119.649 91.6369L119.258 93.4545L117 99.2753H122.428L120.05 93.4545Z" fill="#005C87"/>
<path d="M137.756 95.1106C137.528 94.8505 137.243 94.6467 136.923 94.5153C136.602 94.3839 136.256 94.3284 135.91 94.3532C135.598 94.3314 135.285 94.3719 134.988 94.4722C134.692 94.5725 134.419 94.7307 134.184 94.9374C133.78 95.3432 133.504 95.8587 133.392 96.4197C133.253 97.0923 133.187 97.7779 133.197 98.4645C133.152 99.5026 133.353 100.537 133.783 101.483C133.992 101.849 134.303 102.147 134.679 102.339C135.055 102.531 135.479 102.61 135.9 102.565C136.262 102.594 136.627 102.537 136.963 102.398C137.299 102.258 137.597 102.041 137.832 101.764C138.279 101.128 138.535 100.377 138.57 99.6006H142.391C142.391 103.661 140.22 105.692 135.878 105.692C134.823 105.707 133.773 105.561 132.762 105.259C131.759 104.921 130.904 104.249 130.342 103.355C129.577 102.014 129.223 100.48 129.321 98.9406V97.8587C129.24 96.403 129.555 94.9527 130.233 93.6608C130.757 92.7392 131.586 92.0278 132.578 91.6484C133.642 91.2809 134.762 91.1015 135.889 91.1182C137.489 91.0783 139.065 91.5152 140.415 92.3733C141.696 93.2172 142.337 94.8004 142.337 97.1229H138.527C138.462 96.3939 138.195 95.6972 137.756 95.1106Z" fill="#005C87"/>
<path d="M156.829 101.115C156.861 101.502 156.991 101.875 157.209 102.197C157.299 102.324 157.419 102.427 157.56 102.495C157.7 102.563 157.856 102.595 158.012 102.586C158.427 102.574 158.836 102.482 159.217 102.316C159.552 102.19 159.867 102.015 160.151 101.797L160.965 103.712C160.445 104.321 159.806 104.818 159.087 105.172C158.402 105.538 157.638 105.735 156.861 105.746C156.085 105.811 155.309 105.611 154.662 105.178C154.015 104.746 153.535 104.106 153.301 103.365C152.882 104.032 152.327 104.604 151.672 105.042C151.029 105.474 150.277 105.718 149.501 105.746H149.013C148.207 105.823 147.398 105.647 146.697 105.244C145.997 104.84 145.44 104.229 145.105 103.495C144.399 101.875 144.051 100.122 144.084 98.3561C143.985 96.5154 144.422 94.6853 145.344 93.0871C145.808 92.4229 146.44 91.893 147.176 91.5509C147.912 91.2089 148.725 91.067 149.534 91.1396C150.176 91.1472 150.809 91.291 151.39 91.5616C151.954 91.7857 152.475 92.1041 152.932 92.5028V91.356L156.785 91.7238V99.1892C156.759 99.8314 156.773 100.475 156.829 101.115ZM150.446 94.3854C150.15 94.3731 149.855 94.4303 149.585 94.5525C149.316 94.6747 149.079 94.8583 148.893 95.0886C148.504 95.5774 148.23 96.1467 148.09 96.7548C147.945 97.3719 147.873 98.0036 147.873 98.6374C147.859 99.5636 148.056 100.481 148.448 101.321C148.586 101.656 148.812 101.947 149.102 102.164C149.393 102.382 149.737 102.516 150.098 102.554H150.294C150.817 102.551 151.326 102.384 151.748 102.078C152.19 101.775 152.56 101.38 152.834 100.92V95.5106C152.537 95.1672 152.171 94.8896 151.759 94.6958C151.348 94.502 150.901 94.3963 150.446 94.3854Z" fill="#005C87"/>
<path d="M165.708 105.778C164.905 105.854 164.097 105.678 163.398 105.275C162.7 104.871 162.145 104.26 161.811 103.527C161.102 101.908 160.75 100.155 160.78 98.3881C160.686 96.5479 161.123 94.7194 162.039 93.1191C162.503 92.455 163.135 91.925 163.871 91.583C164.607 91.2409 165.421 91.099 166.23 91.1716C166.866 91.1787 167.494 91.3149 168.075 91.572C168.642 91.8055 169.167 92.1309 169.627 92.5349V86.8115L173.492 86.4761V99.5241C173.458 100.316 173.55 101.108 173.763 101.872C173.818 102.092 173.947 102.286 174.129 102.422C174.311 102.558 174.535 102.628 174.762 102.618C175.206 102.602 175.642 102.495 176.043 102.305C176.4 102.173 176.737 101.991 177.042 101.764L177.856 103.668C177.32 104.294 176.663 104.805 175.923 105.172C175.22 105.554 174.434 105.762 173.633 105.778C172.855 105.842 172.078 105.641 171.431 105.206C170.784 104.771 170.304 104.129 170.072 103.387C169.657 104.059 169.102 104.635 168.444 105.074C167.778 105.518 166.998 105.762 166.197 105.778H165.708ZM167.196 94.385C166.9 94.3735 166.605 94.4312 166.336 94.5533C166.066 94.6754 165.829 94.8586 165.643 95.0882C165.254 95.577 164.98 96.1463 164.84 96.7544C164.701 97.3724 164.628 98.0035 164.623 98.6369C164.608 99.5598 164.805 100.474 165.198 101.309C165.338 101.644 165.564 101.935 165.854 102.154C166.144 102.373 166.487 102.51 166.848 102.554H167.065C167.588 102.551 168.097 102.384 168.52 102.077C168.96 101.772 169.33 101.378 169.606 100.92V95.5102C169.306 95.1641 168.937 94.8849 168.521 94.691C168.106 94.4971 167.654 94.3928 167.196 94.385Z" fill="#005C87"/>
<path d="M181.948 102.045C182.606 102.497 183.398 102.714 184.195 102.662C184.586 102.662 184.966 102.662 185.281 102.608C186.083 102.498 186.875 102.321 187.647 102.078C188.483 101.807 189.167 101.58 189.688 101.374L190.274 103.722C189.837 104.069 189.355 104.357 188.841 104.577C188.09 104.932 187.304 105.211 186.497 105.41C185.63 105.645 184.736 105.765 183.837 105.767C182.483 105.829 181.135 105.55 179.918 104.956C178.939 104.415 178.191 103.538 177.812 102.489C177.327 101.099 177.106 99.6314 177.161 98.161C177.116 96.8149 177.338 95.4731 177.812 94.212C178.235 93.2066 179.006 92.3853 179.983 91.8967C181.223 91.3394 182.576 91.08 183.935 91.1393C185.512 91.0551 187.074 91.4842 188.386 92.3619C188.96 92.8248 189.421 93.4124 189.734 94.0799C190.046 94.7474 190.201 95.4772 190.188 96.2136C190.188 96.4191 190.188 96.7221 190.188 97.1224C190.188 97.5227 190.188 98.0637 190.188 98.4748C190.188 98.8859 190.122 99.1564 190.112 99.2646L181.177 99.7947C181.117 100.204 181.155 100.622 181.289 101.013C181.423 101.404 181.649 101.758 181.948 102.045ZM186.442 96.365C186.442 94.9152 185.585 94.2012 183.881 94.2012C183.526 94.1782 183.17 94.2267 182.834 94.3438C182.498 94.4609 182.19 94.6442 181.927 94.8828C181.425 95.4506 181.151 96.1822 181.156 96.9384L186.421 96.7329C186.437 96.6109 186.444 96.488 186.442 96.365Z" fill="#005C87"/>
<path d="M212.658 99.2644C212.651 99.9326 212.68 100.601 212.745 101.266C212.777 101.63 212.9 101.979 213.103 102.283C213.203 102.396 213.327 102.484 213.467 102.54C213.606 102.596 213.757 102.62 213.907 102.608C214.254 102.605 214.593 102.503 214.884 102.315C215.146 102.159 215.386 101.97 215.6 101.753L216.414 103.657C216.257 103.885 216.071 104.093 215.861 104.274C215.455 104.698 214.991 105.062 214.482 105.356C213.928 105.663 213.304 105.824 212.669 105.821C212.081 105.885 211.485 105.788 210.948 105.54C210.41 105.292 209.951 104.903 209.619 104.414C209.022 103.294 208.738 102.035 208.794 100.768V98.1824C208.798 97.5394 208.769 96.8966 208.707 96.2566C208.654 95.7871 208.486 95.3377 208.218 94.9475C208.072 94.76 207.882 94.6115 207.664 94.5152C207.446 94.4189 207.208 94.3779 206.97 94.3957C206.442 94.3874 205.922 94.5301 205.472 94.8068C205.069 95.0688 204.755 95.4459 204.571 95.8888V105.54H200.717V99.048C200.727 98.2454 200.683 97.443 200.587 96.6461C200.53 96.0852 200.336 95.5466 200.023 95.0773C199.879 94.8787 199.687 94.7197 199.465 94.6156C199.243 94.5115 198.998 94.4656 198.753 94.4822C198.242 94.483 197.742 94.6253 197.309 94.8934C196.911 95.1226 196.587 95.4605 196.375 95.8671V105.604H192.532V91.7017L196.386 91.3338V93.0757C196.834 92.5108 197.406 92.0556 198.058 91.745C198.781 91.368 199.586 91.1713 200.403 91.1716C201.133 91.1012 201.866 91.2674 202.494 91.6455C203.122 92.0236 203.61 92.5935 203.887 93.2705C204.503 92.6211 205.24 92.0991 206.058 91.7342C206.886 91.3569 207.786 91.1649 208.696 91.1716C211.33 91.1716 212.651 93.1262 212.658 97.0356V99.2644Z" fill="#005C87"/>
<path d="M220.387 99.2326C220.371 99.9094 220.441 100.585 220.594 101.245C220.686 101.675 220.929 102.058 221.278 102.327C221.688 102.565 222.16 102.678 222.635 102.652C223.069 102.658 223.5 102.566 223.894 102.381C224.24 102.224 224.565 102.024 224.86 101.786C225.001 101.679 225.129 101.556 225.24 101.418V91.551H229.083V104.448C229.091 105.559 228.881 106.662 228.464 107.693C228.049 108.756 227.309 109.66 226.348 110.278C225.386 110.896 224.254 111.195 223.112 111.134C222.931 111.134 222.627 111.112 222.2 111.069C221.596 111.03 220.996 110.936 220.409 110.788C219.988 110.702 219.576 110.571 219.183 110.398V107.845C219.524 108.019 219.89 108.139 220.268 108.202C220.766 108.294 221.271 108.341 221.777 108.342C222.648 108.377 223.502 108.092 224.176 107.542C224.525 107.201 224.795 106.788 224.966 106.332C225.136 105.876 225.204 105.387 225.164 104.902V104.188C224.682 104.665 224.12 105.053 223.503 105.335C222.746 105.687 221.917 105.857 221.082 105.832C220.416 105.898 219.744 105.801 219.124 105.55C218.504 105.299 217.954 104.903 217.522 104.393C216.717 103.122 216.337 101.63 216.436 100.131V91.3887L220.301 91.7782L220.387 99.2326Z" fill="#005C87"/>
<path d="M133.522 65.2918C133.522 65.0863 133.522 64.6751 133.522 64.0801C133.522 63.485 133.522 62.9116 133.468 62.5546C133.414 62.1975 133.392 61.7647 133.327 61.213C133.267 60.686 133.18 60.1624 133.066 59.6442C132.958 59.1573 132.828 58.6596 132.665 58.1619C132.202 56.4425 131.084 54.9712 129.549 54.0614C128.885 53.7376 128.153 53.5784 127.414 53.5972C126.675 53.616 125.951 53.8124 125.305 54.1696C124.072 54.7942 123.018 55.7213 122.243 56.8636C121.719 55.9966 121.007 55.2573 120.159 54.6997C119.746 54.3656 119.27 54.1177 118.759 53.9709C118.248 53.8241 117.713 53.7812 117.185 53.845C116.282 53.9492 115.434 54.3268 114.753 54.927C114.688 54.6077 114.525 54.3165 114.286 54.0939C114.133 53.9395 113.95 53.8169 113.749 53.7333C113.548 53.6496 113.332 53.6065 113.114 53.6065C112.896 53.6065 112.68 53.6496 112.479 53.7333C112.278 53.8169 112.095 53.9395 111.942 54.0939C111.783 54.2444 111.657 54.4257 111.571 54.6267C111.485 54.8276 111.441 55.0439 111.442 55.2623V80.2441C111.441 80.4641 111.485 80.6821 111.57 80.8849C111.656 81.0876 111.783 81.2708 111.942 81.4234C112.254 81.73 112.675 81.9018 113.114 81.9018C113.553 81.9018 113.974 81.73 114.286 81.4234C114.446 81.2708 114.572 81.0876 114.658 80.8849C114.744 80.6821 114.787 80.4641 114.786 80.2441V61.6457C115.121 60.2153 115.745 58.868 116.62 57.6859C117.283 56.961 117.706 57.0367 118.238 57.3613C118.666 57.6496 119.034 58.0169 119.323 58.4432C119.628 58.9012 119.866 59.4003 120.029 59.9255C120.366 61.3476 120.584 62.7951 120.68 64.2532C120.832 66.0384 120.919 67.4449 120.941 68.4402C120.963 69.4356 120.941 71.2424 120.941 73.7633C120.941 76.2842 120.887 77.6583 120.887 77.7881C120.887 78.0063 120.931 78.2223 121.017 78.4231C121.103 78.6238 121.228 78.8053 121.386 78.9566C121.62 79.1858 121.916 79.3414 122.237 79.4041C122.559 79.4668 122.892 79.4339 123.196 79.3094C123.499 79.1848 123.758 78.9742 123.942 78.7037C124.126 78.4333 124.226 78.1148 124.23 77.7881C124.23 77.3662 124.23 76.2193 124.23 74.3692C124.23 72.5191 124.23 71.0369 124.23 69.9441C124.23 68.8514 124.23 67.499 124.111 65.8761C124.061 64.532 123.934 63.1918 123.731 61.8621C123.731 61.7864 123.731 61.7106 123.796 61.6133C123.956 60.657 124.327 59.748 124.881 58.9517C125.346 58.2138 125.993 57.6067 126.759 57.1882C126.935 57.0612 127.141 56.9832 127.356 56.9623C127.572 56.9414 127.789 56.9783 127.986 57.0692C128.731 57.6327 129.25 58.4419 129.452 59.352C129.592 59.7015 129.697 60.0639 129.766 60.434C129.856 60.8445 129.921 61.26 129.962 61.6782C130.016 62.1542 130.049 62.5437 130.07 62.7601V64.1666C130.07 64.8266 130.07 65.2486 130.146 65.5299C130.19 66.6767 130.233 67.9426 130.277 69.3274C130.277 70.6907 130.277 71.8483 130.277 72.7896C130.277 73.7309 130.277 75.0184 130.277 76.6737C130.277 78.3291 130.277 79.5408 130.277 80.2657C130.273 80.4834 130.315 80.6995 130.399 80.9005C130.483 81.1015 130.608 81.2831 130.765 81.4342C130.999 81.6634 131.295 81.819 131.617 81.8817C131.938 81.9445 132.272 81.9115 132.575 81.787C132.878 81.6625 133.137 81.4518 133.321 81.1814C133.505 80.9109 133.605 80.5925 133.609 80.2657C133.609 79.5408 133.609 78.3399 133.609 76.6737C133.609 75.0075 133.609 73.6876 133.609 72.7463C133.609 71.805 133.609 70.5825 133.555 69.2192C133.501 67.856 133.577 66.5144 133.522 65.2918Z" fill="#8DC63F"/>
<path d="M150.044 58.0972C149.059 56.3203 147.597 54.8518 145.821 53.856C145.561 53.7341 145.273 53.6783 144.986 53.6937C144.71 53.5705 144.407 53.522 144.106 53.5531C141.87 53.7911 139.992 55.4248 138.538 58.4109C137.295 61.1416 136.559 64.0742 136.366 67.0664C136.041 70.0703 136.341 73.1088 137.246 75.9923C138.331 79.1732 140.144 81.0449 142.673 81.5642C143.22 81.6784 143.776 81.7364 144.334 81.7373C145.485 81.7285 146.616 81.4389 147.628 80.8938C148.641 80.3487 149.504 79.5648 150.142 78.6106C151.773 76.1356 152.669 73.2512 152.726 70.2905C152.856 68.1786 152.713 66.0587 152.302 63.9829C151.879 61.9106 151.117 59.922 150.044 58.0972ZM143.325 78.2968C142.044 78.0371 141.154 76.9444 140.426 74.9428C139.695 72.4888 139.463 69.914 139.742 67.3693C139.901 64.787 140.515 62.2527 141.555 59.8824C142.424 58.0539 143.368 57.0477 144.334 56.9071C146.19 58.0617 147.565 59.8439 148.21 61.9272C149.159 64.5409 149.558 67.3216 149.382 70.0958C149.354 72.4042 148.665 74.6565 147.396 76.5874C146.995 77.2743 146.382 77.8126 145.647 78.1211C144.913 78.4295 144.098 78.4912 143.325 78.2968Z" fill="#8DC63F"/>
<path d="M169.399 58.6819C168.839 56.8814 167.644 55.3441 166.034 54.3542C165.317 53.9444 164.522 53.6876 163.7 53.6C162.877 53.5125 162.046 53.5961 161.258 53.8457C160.204 54.1362 159.224 54.6449 158.381 55.3387V55.2197C158.382 55.0023 158.339 54.787 158.255 54.5864C158.171 54.3857 158.048 54.2038 157.893 54.0512C157.738 53.8965 157.555 53.7737 157.353 53.6899C157.15 53.6061 156.934 53.563 156.715 53.563C156.496 53.563 156.279 53.6061 156.077 53.6899C155.875 53.7737 155.691 53.8965 155.537 54.0512C155.394 54.2089 155.284 54.3935 155.213 54.5941C155.142 54.7947 155.112 55.0074 155.124 55.2197V80.2014C155.123 80.4215 155.167 80.6395 155.253 80.8422C155.338 81.045 155.465 81.2282 155.624 81.3807C155.938 81.688 156.361 81.8601 156.802 81.8601C157.242 81.8601 157.665 81.688 157.979 81.3807C158.135 81.2258 158.258 81.0419 158.341 80.8395C158.425 80.6372 158.468 80.4203 158.468 80.2014V61.4841C158.647 60.4478 159.105 59.4793 159.792 58.6819C160.417 57.9281 161.246 57.3687 162.181 57.0698C162.557 56.9523 162.953 56.9128 163.345 56.9537C163.737 56.9946 164.117 57.1152 164.46 57.3078C165.347 57.9158 165.983 58.8226 166.251 59.8612C166.796 61.4122 167.16 63.0204 167.337 64.6541C167.54 66.2656 167.646 67.8878 167.652 69.512C167.652 70.9185 167.587 72.7578 167.511 75.1272C167.435 77.4966 167.402 79.1736 167.402 80.2339C167.401 80.4539 167.444 80.6719 167.53 80.8747C167.616 81.0774 167.742 81.2606 167.901 81.4132C168.053 81.57 168.235 81.6941 168.437 81.7779C168.639 81.8616 168.855 81.9032 169.074 81.9001C169.292 81.9019 169.508 81.8598 169.71 81.7761C169.911 81.6924 170.094 81.569 170.246 81.4132C170.405 81.2606 170.532 81.0774 170.617 80.8747C170.703 80.6719 170.747 80.4539 170.745 80.2339C170.745 79.2926 170.745 77.6373 170.854 75.2895C170.963 72.9417 170.973 70.9618 170.984 69.5228C170.982 67.7353 170.863 65.9499 170.626 64.1781C170.411 62.3084 170 60.4663 169.399 58.6819Z" fill="#8DC63F"/>
<path d="M184.564 53.738C182.209 53.6406 178.616 53.6514 173.883 53.738C173.661 53.7363 173.442 53.7817 173.24 53.8713C173.038 53.9608 172.857 54.0925 172.71 54.2573C172.42 54.573 172.261 54.9868 172.265 55.415C172.262 55.6405 172.306 55.8643 172.396 56.0713C172.486 56.2784 172.619 56.464 172.786 56.6159C173.114 56.9167 173.546 57.0795 173.991 57.0703L177.335 56.9729V80.1262C177.332 80.3439 177.373 80.56 177.457 80.761C177.541 80.962 177.666 81.1436 177.823 81.2947C177.977 81.4523 178.161 81.5775 178.364 81.663C178.567 81.7485 178.786 81.7925 179.006 81.7924C179.225 81.7922 179.442 81.7481 179.644 81.6626C179.845 81.5771 180.027 81.452 180.179 81.2947C180.336 81.1436 180.461 80.962 180.545 80.761C180.629 80.56 180.671 80.3439 180.667 80.1262V56.9838C182.024 56.9838 183.283 56.9838 184.445 57.0703C184.864 57.0741 185.27 56.9239 185.585 56.6484C185.764 56.503 185.908 56.3198 186.008 56.1122C186.107 55.9046 186.159 55.6775 186.16 55.4474C186.16 55.0285 186.005 54.6243 185.726 54.3114C185.585 54.1386 185.408 53.998 185.208 53.899C185.007 53.8001 184.788 53.7452 184.564 53.738Z" fill="#8DC63F"/>
<path d="M194.921 56.9719C196.951 56.9719 198.536 56.9719 199.675 57.0693C200.111 57.0737 200.534 56.9155 200.859 56.6257C201.025 56.4733 201.158 56.2876 201.248 56.0807C201.338 55.8737 201.383 55.6502 201.38 55.4247C201.386 54.9961 201.227 54.5815 200.935 54.2671C200.798 54.1118 200.632 53.9858 200.445 53.8965C200.259 53.8073 200.056 53.7567 199.849 53.7477C198.763 53.7477 197.059 53.6612 194.801 53.6504C192.543 53.6395 190.969 53.6504 189.884 53.5854H189.829C189.402 53.5868 188.991 53.7491 188.679 54.0399C188.506 54.1991 188.37 54.3938 188.28 54.6104C188.19 54.8271 188.148 55.0606 188.158 55.2949V80.017C188.141 80.1716 188.141 80.3276 188.158 80.4822C188.227 80.8395 188.414 81.1634 188.69 81.4018C188.98 81.6826 189.37 81.838 189.775 81.8346C192.218 81.9104 195.453 81.9428 199.415 81.9428C199.633 81.9447 199.849 81.9025 200.051 81.8189C200.252 81.7352 200.435 81.6117 200.587 81.4559C200.745 81.3036 200.871 81.1212 200.956 80.9195C201.042 80.7179 201.086 80.5011 201.086 80.282C201.086 80.063 201.042 79.8462 200.956 79.6446C200.871 79.4429 200.745 79.2605 200.587 79.1082C200.435 78.9524 200.252 78.8289 200.051 78.7452C199.849 78.6616 199.633 78.6194 199.415 78.6213C196.158 78.6213 193.564 78.6213 191.479 78.5564V68.9272C192.337 68.9272 193.444 68.9272 194.79 68.9272C196.647 68.9272 198.047 68.9272 199.035 68.9272C199.461 68.9299 199.872 68.7713 200.186 68.4836C200.348 68.3384 200.478 68.1618 200.57 67.9647C200.661 67.7675 200.711 67.5539 200.717 67.3368C200.717 66.9075 200.554 66.4943 200.262 66.1791C200.112 66.012 199.927 65.8792 199.721 65.7895C199.515 65.6999 199.292 65.6557 199.067 65.6598C198.134 65.6598 196.712 65.6598 194.823 65.6598C193.466 65.6598 192.359 65.6598 191.49 65.6598V57.0043L194.921 56.9719Z" fill="#8DC63F"/>
<path d="M216.034 69.9778C215.582 69.2867 215.085 68.6253 214.547 67.9979C214.08 67.4786 213.461 66.916 212.864 66.2668C212.68 66.0504 212.322 65.6934 211.779 65.1849L209.847 63.1941C209.532 62.8263 209.271 62.5125 209.054 62.2204C208.681 61.821 208.393 61.3507 208.206 60.8376C208.02 60.3245 207.939 59.7792 207.969 59.2343C208.028 58.8889 208.167 58.5618 208.374 58.2785C208.581 57.9952 208.851 57.7632 209.163 57.6006C209.856 57.1836 210.676 57.0264 211.475 57.157C211.85 57.1927 212.214 57.3077 212.542 57.4942C212.869 57.6807 213.153 57.9346 213.375 58.2389C213.879 59.1177 214.019 60.1581 213.765 61.1385C213.733 61.3519 213.745 61.5697 213.801 61.7782C213.857 61.9867 213.956 62.1814 214.091 62.3502C214.357 62.6958 214.745 62.9278 215.177 62.9994C215.398 63.0424 215.626 63.0377 215.845 62.9854C216.064 62.9331 216.269 62.8346 216.447 62.6964C216.792 62.428 217.027 62.0434 217.109 61.6145C217.326 60.6935 217.35 59.7379 217.18 58.8073C217.01 57.8766 216.649 56.9907 216.121 56.2049C215.642 55.5216 215.022 54.9475 214.303 54.5204C213.585 54.0933 212.784 53.823 211.953 53.7273C210.383 53.4943 208.782 53.8158 207.426 54.6361C206.714 55.0452 206.102 55.6069 205.635 56.2805C205.167 56.9541 204.856 57.7228 204.723 58.531C204.597 59.5354 204.686 60.5548 204.984 61.5224C205.281 62.4901 205.781 63.3843 206.449 64.1462C206.709 64.4924 207.024 64.8711 207.393 65.2931L212.094 70.1942C212.524 70.6867 212.916 71.2111 213.266 71.763C213.599 72.2487 213.865 72.7763 214.059 73.3318C214.209 73.8342 214.289 74.3548 214.297 74.879C214.302 75.432 214.195 75.9802 213.983 76.491C213.789 76.9791 213.447 77.395 213.006 77.6812C212.49 78.0136 211.906 78.2253 211.297 78.3002C210.688 78.3752 210.069 78.3115 209.488 78.1139C208.991 77.952 208.547 77.6562 208.207 77.2592C207.534 76.3828 207.209 74.7275 207.252 72.4554C207.255 72.0308 207.096 71.6209 206.807 71.3086C206.499 70.9928 206.081 70.8084 205.639 70.7943C205.198 70.7802 204.768 70.9374 204.441 71.2329C204.273 71.3843 204.139 71.5699 204.049 71.777C203.96 71.9842 203.915 72.2081 203.92 72.4338C203.833 75.5173 204.365 77.7461 205.548 79.2716C206.262 80.1859 207.228 80.8737 208.327 81.2515C209.118 81.5304 209.952 81.6731 210.791 81.6735C211.107 81.673 211.422 81.6513 211.735 81.6086C212.877 81.4432 213.968 81.0255 214.927 80.386C215.915 79.7361 216.675 78.794 217.098 77.692C217.464 76.7766 217.648 75.7993 217.641 74.814C217.632 73.9524 217.501 73.0963 217.25 72.2715C216.949 71.4563 216.54 70.6849 216.034 69.9778Z" fill="#8DC63F"/>
<path d="M232.133 69.9778C231.674 69.2888 231.173 68.6276 230.635 67.9979C230.179 67.4786 229.55 66.916 228.953 66.2668C228.768 66.0504 228.421 65.6934 227.867 65.1849L225.935 63.1941C225.62 62.8263 225.359 62.5125 225.142 62.2204C224.769 61.8214 224.48 61.3511 224.293 60.8379C224.107 60.3247 224.026 59.7793 224.057 59.2343C224.118 58.8879 224.258 58.5602 224.467 58.2768C224.676 57.9934 224.948 57.762 225.262 57.6006C225.954 57.1818 226.775 57.0245 227.574 57.157C227.949 57.1954 228.311 57.3115 228.638 57.4978C228.966 57.6841 229.25 57.9365 229.474 58.2389C229.979 59.1177 230.115 60.1598 229.853 61.1385C229.826 61.3526 229.841 61.5701 229.899 61.7782C229.957 61.9862 230.056 62.1807 230.19 62.3502C230.454 62.6983 230.843 62.931 231.276 62.9994C231.497 63.0439 231.725 63.0398 231.944 62.9875C232.163 62.9352 232.369 62.8359 232.546 62.6964C232.894 62.4291 233.133 62.0446 233.219 61.6145C233.434 60.6928 233.456 59.7368 233.284 58.8061C233.112 57.8754 232.75 56.9899 232.22 56.2049C231.742 55.5229 231.124 54.9495 230.407 54.5225C229.691 54.0955 228.892 53.8245 228.062 53.7273C226.493 53.4943 224.892 53.8158 223.536 54.6361C222.824 55.0452 222.212 55.6069 221.745 56.2805C221.277 56.9541 220.966 57.7228 220.833 58.531C220.704 59.5354 220.792 60.5556 221.09 61.5237C221.387 62.4918 221.888 63.3857 222.559 64.1462C222.819 64.4924 223.134 64.8711 223.503 65.2931L228.193 70.1942C228.626 70.6864 229.022 71.2108 229.376 71.763C229.705 72.2489 229.968 72.7765 230.157 73.3318C230.313 73.833 230.393 74.3543 230.396 74.879C230.405 75.4313 230.302 75.9796 230.092 76.491C229.895 76.977 229.554 77.3919 229.115 77.6812C228.609 78.0199 228.028 78.2315 227.422 78.2978C226.804 78.3863 226.175 78.3231 225.587 78.1139C225.092 77.9466 224.65 77.6517 224.306 77.2592C223.644 76.3828 223.319 74.7275 223.362 72.4554C223.365 72.0308 223.206 71.6209 222.917 71.3086C222.606 70.9945 222.186 70.8115 221.743 70.7974C221.301 70.7833 220.87 70.9392 220.54 71.2329C220.374 71.386 220.242 71.5719 220.152 71.7787C220.062 71.9854 220.017 72.2085 220.018 72.4338C219.942 75.5173 220.474 77.7461 221.647 79.2716C222.365 80.1862 223.334 80.8739 224.437 81.2515C225.224 81.5312 226.054 81.674 226.89 81.6735C227.206 81.6734 227.521 81.6517 227.834 81.6086C228.977 81.445 230.068 81.0272 231.026 80.386C232.013 79.735 232.772 78.7933 233.197 77.692C233.56 76.7763 233.741 75.7987 233.729 74.814C233.729 73.9525 233.601 73.0957 233.349 72.2715C233.048 71.4563 232.639 70.6849 232.133 69.9778Z" fill="#8DC63F"/>
<path d="M249.936 58.0972C248.948 56.3223 247.487 54.8545 245.713 53.856C245.452 53.7349 245.165 53.6792 244.878 53.6937C244.602 53.5705 244.299 53.522 243.998 53.5531C241.751 53.7911 239.884 55.4248 238.429 58.4109C237.187 61.1416 236.451 64.0742 236.258 67.0664C235.928 70.0703 236.227 73.1098 237.138 75.9923C238.223 79.1732 240.036 81.0449 242.565 81.5642C243.112 81.6784 243.668 81.7364 244.226 81.7373C245.377 81.7285 246.508 81.4389 247.52 80.8938C248.533 80.3487 249.396 79.5648 250.034 78.6106C251.66 76.1333 252.556 73.2504 252.617 70.2905C252.749 68.1781 252.603 66.0576 252.183 63.9829C251.764 61.9111 251.005 59.9225 249.936 58.0972ZM243.217 78.2968C241.936 78.0371 240.98 76.9444 240.307 74.9428C239.586 72.4869 239.357 69.9134 239.634 67.3693C239.785 64.7869 240.395 62.2517 241.436 59.8824C242.316 58.0539 243.249 57.0477 244.226 56.9071C246.082 58.0617 247.457 59.8439 248.102 61.9272C249.051 64.5409 249.45 67.3216 249.274 70.0958C249.246 72.4042 248.557 74.6565 247.287 76.5874C246.887 77.2743 246.274 77.8126 245.539 78.1211C244.805 78.4295 243.989 78.4912 243.217 78.2968Z" fill="#8DC63F"/>
<path d="M269.27 75.4195C269.27 74.7487 269.194 74.1103 269.128 73.5153C269.063 72.9202 268.976 72.336 268.879 71.7734C268.238 68.6574 266.881 66.4827 264.808 65.2818C265.928 64.2893 266.779 63.0317 267.283 61.6249C267.655 60.7629 267.826 59.8275 267.78 58.89C267.735 57.9526 267.476 57.0377 267.022 56.2152C265.937 54.4084 264.135 53.4996 261.595 53.4996C260.332 53.4868 259.077 53.688 257.882 54.0947C257.729 53.9403 257.546 53.8177 257.345 53.734C257.144 53.6504 256.928 53.6073 256.71 53.6073C256.492 53.6073 256.276 53.6504 256.075 53.734C255.873 53.8177 255.691 53.9403 255.537 54.0947C255.376 54.2364 255.245 54.4091 255.151 54.6024C255.058 54.7957 255.005 55.0056 254.995 55.2199V80.2016C254.993 80.4216 255.037 80.6396 255.123 80.8424C255.209 81.0451 255.335 81.2283 255.494 81.3809C255.646 81.5377 255.828 81.6618 256.03 81.7456C256.231 81.8293 256.448 81.8709 256.666 81.8678C256.885 81.8696 257.101 81.8275 257.303 81.7438C257.504 81.6601 257.686 81.5367 257.839 81.3809C257.998 81.2283 258.124 81.0451 258.21 80.8424C258.296 80.6396 258.339 80.4216 258.338 80.2016V67.8243H258.599C259.109 67.8238 259.618 67.773 260.118 67.6729C260.848 67.6073 261.583 67.6733 262.29 67.8676C264.005 68.3869 265.079 69.9016 265.546 72.4874C265.633 72.9635 265.709 73.4395 265.752 73.9372C265.796 74.4349 265.839 75.0192 265.861 75.625L265.926 77.1397C265.926 77.5184 265.926 78.0594 265.926 78.7518C265.926 79.4442 265.926 79.9527 265.926 80.1908C265.924 80.4083 265.967 80.624 266.05 80.8248C266.134 81.0256 266.258 81.2074 266.415 81.3592C266.569 81.514 266.752 81.6368 266.955 81.7206C267.157 81.8044 267.373 81.8475 267.592 81.8475C267.811 81.8475 268.028 81.8044 268.23 81.7206C268.432 81.6368 268.616 81.514 268.77 81.3592C268.928 81.2079 269.054 81.0265 269.139 80.8257C269.225 80.6249 269.269 80.409 269.27 80.1908C269.27 79.9852 269.27 79.5308 269.27 78.8275C269.27 78.1243 269.27 77.5076 269.27 77.0856C269.27 76.6637 269.291 76.0794 269.27 75.4195ZM258.306 57.4919C259.325 57.0199 260.439 56.7867 261.562 56.8103C262.054 56.7457 262.553 56.8118 263.011 57.0018C263.468 57.1918 263.867 57.499 264.168 57.8922C264.363 58.3069 264.464 58.7594 264.464 59.2176C264.464 59.6758 264.363 60.1283 264.168 60.543C263.791 61.4804 263.191 62.3122 262.42 62.9665C261.612 63.6716 260.63 64.1496 259.576 64.3513C259.207 64.3513 258.772 64.4487 258.295 64.5244L258.306 57.4919Z" fill="#8DC63F"/>
<path d="M274.925 54.0512C274.771 53.8965 274.587 53.7737 274.385 53.6899C274.183 53.6061 273.966 53.563 273.747 53.563C273.529 53.563 273.312 53.6061 273.11 53.6899C272.907 53.7737 272.724 53.8965 272.57 54.0512C272.412 54.2023 272.288 54.3839 272.204 54.5849C272.12 54.7859 272.078 55.002 272.081 55.2197V80.2014C272.063 80.4308 272.092 80.6615 272.167 80.879C272.242 81.0966 272.362 81.2962 272.519 81.4653C272.675 81.6344 272.865 81.7694 273.077 81.8618C273.288 81.9541 273.517 82.0017 273.747 82.0017C273.978 82.0017 274.207 81.9541 274.418 81.8618C274.63 81.7694 274.82 81.6344 274.976 81.4653C275.133 81.2962 275.252 81.0966 275.328 80.879C275.403 80.6615 275.432 80.4308 275.414 80.2014V55.2197C275.417 55.002 275.375 54.7859 275.291 54.5849C275.207 54.3839 275.083 54.2023 274.925 54.0512Z" fill="#8DC63F"/>
<path d="M115.035 27.7812V46.4553H111.062V30.9188L110.791 27.7812H115.035Z" fill="#005C87"/>
<path d="M126.368 36.2317C126.185 35.9391 125.923 35.7031 125.612 35.5503C125.302 35.3974 124.955 35.3337 124.61 35.3662C124.175 35.3607 123.744 35.4532 123.35 35.6367C123.007 35.7928 122.686 35.9929 122.395 36.2317C122.251 36.335 122.123 36.459 122.015 36.5996V46.456H118.216V32.7155L122.059 32.3476V34.0462C122.059 33.9813 122.265 33.7866 122.677 33.4728C123.154 33.1142 123.671 32.8127 124.219 32.5748C124.824 32.3068 125.479 32.1704 126.14 32.1745C126.805 32.1102 127.475 32.2076 128.093 32.4582C128.711 32.7089 129.259 33.1053 129.69 33.6135C130.494 34.8846 130.874 36.3768 130.776 37.8763V40.4945C130.768 41.1094 130.804 41.7241 130.884 42.3338C130.903 42.6835 131.028 43.0193 131.242 43.2967C131.344 43.4027 131.467 43.4849 131.604 43.5373C131.741 43.5898 131.888 43.611 132.035 43.5997C132.372 43.6043 132.705 43.5223 133.001 43.3616C133.246 43.245 133.467 43.0835 133.652 42.8856L134.477 44.7898C134.323 45.0073 134.14 45.2037 133.935 45.374C133.53 45.7539 133.073 46.0745 132.578 46.3261C132.027 46.6186 131.411 46.7675 130.786 46.7589C130.199 46.8242 129.604 46.7288 129.067 46.4829C128.53 46.237 128.069 45.8499 127.736 45.3632C127.15 44.2396 126.869 42.9825 126.922 41.7171V38.9041C126.962 37.9814 126.771 37.0633 126.368 36.2317Z" fill="#005C87"/>
<path d="M138.581 40.2133C138.572 40.8603 138.605 41.5071 138.678 42.15C138.714 42.5346 138.84 42.9054 139.048 43.2319C139.14 43.3558 139.262 43.4552 139.402 43.5213C139.542 43.5873 139.696 43.618 139.851 43.6106C140.27 43.6035 140.684 43.5115 141.067 43.3401C141.396 43.209 141.707 43.0344 141.989 42.8207L142.803 44.7358C142.29 45.3454 141.659 45.8459 140.947 46.2072C140.262 46.5714 139.498 46.7645 138.722 46.7698C138.121 46.8395 137.513 46.7466 136.961 46.501C136.409 46.2554 135.934 45.8661 135.585 45.3741C134.956 44.2716 134.648 43.0167 134.694 41.7496V35.4204H133.196V32.5424H134.694V28.7016L138.559 28.5068V32.5424H141.479L141.11 35.4204H138.548V40.2133H138.581Z" fill="#005C87"/>
<path d="M147.178 43.0805C147.84 43.5238 148.63 43.7368 149.425 43.6863C149.827 43.6863 150.207 43.6863 150.511 43.6863C151.342 43.5705 152.16 43.3748 152.953 43.1021C153.789 42.8424 154.473 42.6044 155.005 42.3988L155.591 44.7466C155.148 45.0939 154.663 45.3847 154.147 45.6122C153.392 45.9573 152.607 46.2361 151.803 46.4453C150.934 46.6726 150.041 46.7889 149.143 46.7915C147.789 46.8534 146.441 46.5744 145.224 45.98C144.24 45.4471 143.481 44.5792 143.086 43.5349C142.607 42.166 142.386 40.7208 142.434 39.2721C142.387 37.9212 142.612 36.5746 143.096 35.3122C143.513 34.3055 144.286 33.4857 145.268 33.0077C146.502 32.446 147.852 32.1828 149.208 32.2395C150.785 32.1592 152.346 32.588 153.659 33.4621C154.235 33.9239 154.697 34.5113 155.009 35.179C155.322 35.8468 155.476 36.5771 155.461 37.3138C155.461 37.5157 155.461 37.8187 155.461 38.2226C155.462 38.6778 155.441 39.1328 155.396 39.5858C155.396 39.9969 155.341 40.2566 155.32 40.3756L146.407 40.8841C146.36 41.2845 146.405 41.6905 146.538 42.0711C146.672 42.4517 146.891 42.7969 147.178 43.0805ZM151.672 37.3895C151.672 35.9397 150.815 35.2256 149.11 35.2256C148.757 35.2017 148.403 35.2497 148.068 35.3669C147.734 35.4841 147.428 35.668 147.167 35.9073C146.663 36.4784 146.385 37.2131 146.386 37.9737L151.661 37.7682C151.661 37.6708 151.672 37.5518 151.672 37.3895Z" fill="#005C87"/>
<path d="M166.175 35.2252C165.82 35.141 165.455 35.101 165.09 35.1062C164.519 35.1126 163.957 35.2535 163.451 35.5174C162.936 35.7733 162.486 36.1434 162.137 36.5993C161.822 37.0056 161.646 37.5028 161.638 38.0166V46.4557H157.795V32.7152L161.638 32.3473V34.3489C162.076 33.7079 162.655 33.175 163.331 32.7909C164.087 32.3732 164.942 32.1641 165.806 32.185C166.214 32.1814 166.619 32.236 167.011 32.3473C167.261 32.4064 167.501 32.4973 167.728 32.6178L167.207 35.539C166.87 35.4112 166.526 35.3064 166.175 35.2252Z" fill="#005C87"/>
<path d="M177.476 36.2317C177.294 35.9399 177.034 35.7044 176.725 35.5516C176.417 35.3987 176.071 35.3345 175.728 35.3662C175.293 35.3595 174.862 35.4521 174.469 35.6367C174.121 35.7907 173.796 35.9909 173.503 36.2317C173.361 36.3384 173.234 36.462 173.123 36.5996V46.4559H169.236V32.7154L173.079 32.3476V34.0462C173.079 33.9813 173.286 33.7866 173.709 33.4728C174.182 33.1095 174.7 32.8078 175.25 32.5748C175.851 32.3058 176.503 32.1692 177.161 32.1745C177.827 32.1103 178.499 32.2076 179.119 32.4582C179.739 32.7087 180.289 33.1051 180.722 33.6135C181.526 34.8846 181.906 36.3767 181.807 37.8762V40.4945C181.805 41.1093 181.841 41.7235 181.916 42.3338C181.944 42.6814 182.068 43.0145 182.274 43.2967C182.377 43.403 182.503 43.4852 182.642 43.5376C182.78 43.5899 182.929 43.6111 183.077 43.5997C183.411 43.6029 183.74 43.5209 184.032 43.3616C184.28 43.2442 184.505 43.0829 184.695 42.8856L185.509 44.7898C185.36 45.0089 185.181 45.2057 184.977 45.374C184.568 45.749 184.112 46.0691 183.62 46.3261C183.065 46.6186 182.445 46.7674 181.818 46.7589C181.232 46.8221 180.64 46.7257 180.105 46.4799C179.569 46.2341 179.111 45.8482 178.778 45.3632C178.183 44.2424 177.899 42.9839 177.953 41.7171V38.9041C178.017 37.9877 177.853 37.0699 177.476 36.2317Z" fill="#005C87"/>
<path d="M198.036 42.1499C198.067 42.5355 198.194 42.9074 198.405 43.2318C198.499 43.3567 198.623 43.4565 198.765 43.5225C198.907 43.5886 199.063 43.6188 199.219 43.6105C199.635 43.6023 200.045 43.5103 200.424 43.34C200.758 43.2113 201.073 43.0364 201.358 42.8207L202.172 44.7357C201.648 45.3435 201.01 45.8434 200.294 46.2071C199.605 46.5703 198.838 46.7632 198.058 46.7697C197.284 46.8352 196.511 46.6362 195.866 46.2056C195.221 45.7749 194.742 45.1383 194.508 44.4003C194.084 45.0626 193.53 45.6329 192.88 46.0773C192.217 46.509 191.446 46.7488 190.654 46.7697H190.155C189.35 46.8435 188.542 46.6654 187.844 46.2601C187.145 45.8548 186.591 45.2425 186.258 44.5085C185.528 42.8935 185.158 41.1404 185.172 39.3694C185.08 37.5293 185.516 35.7011 186.432 34.1004C187.134 33.219 188.107 32.5921 189.201 32.3164C190.296 32.0408 191.451 32.1316 192.489 32.5749C193.049 32.8057 193.57 33.1234 194.03 33.5161V32.3801L197.884 32.748V40.2133C197.894 40.8614 197.944 41.5082 198.036 42.1499ZM191.642 35.377C191.346 35.3656 191.052 35.4232 190.782 35.5453C190.513 35.6674 190.276 35.8506 190.09 36.0803C189.702 36.5727 189.432 37.1459 189.297 37.7573C189.149 38.3703 189.072 38.9984 189.07 39.629C189.065 40.5543 189.262 41.4695 189.645 42.3122C189.789 42.6441 190.018 42.9321 190.31 43.1469C190.602 43.3617 190.945 43.4955 191.306 43.5348H191.49C192.015 43.5251 192.526 43.3593 192.956 43.0587C193.398 42.7516 193.768 42.353 194.041 41.8903V36.4806C193.741 36.1398 193.372 35.8655 192.959 35.6754C192.546 35.4854 192.097 35.3837 191.642 35.377Z" fill="#005C87"/>
<path d="M206.449 40.2133C206.441 40.8603 206.473 41.5071 206.547 42.15C206.582 42.5346 206.709 42.9054 206.916 43.2319C207.007 43.3573 207.128 43.4578 207.269 43.524C207.409 43.5901 207.564 43.6199 207.719 43.6106C208.135 43.6045 208.546 43.5124 208.924 43.3401C209.258 43.2113 209.572 43.0365 209.858 42.8207L210.672 44.7358C210.158 45.3455 209.527 45.8459 208.816 46.2072C208.126 46.5703 207.359 46.7633 206.579 46.7698C205.982 46.8299 205.38 46.7303 204.834 46.4812C204.288 46.2321 203.819 45.8425 203.475 45.3525C202.85 44.2488 202.546 42.994 202.595 41.728V35.4204H201.097V32.5424H202.595V28.7016L206.46 28.5068V32.5424H209.402L209.044 35.4204H206.482V40.2133H206.449Z" fill="#005C87"/>
<path d="M215.101 42.1507C215.132 42.5363 215.259 42.9082 215.47 43.2326C215.564 43.3574 215.688 43.4573 215.83 43.5233C215.972 43.5893 216.128 43.6196 216.284 43.6113C216.697 43.604 217.103 43.5119 217.478 43.3408C217.809 43.2124 218.12 43.0375 218.401 42.8215L219.226 44.7365C218.708 45.3465 218.074 45.8468 217.359 46.2079C216.669 46.5711 215.902 46.764 215.123 46.7705C214.215 46.8339 213.317 46.5473 212.615 45.9699C212.028 45.4376 211.619 44.7391 211.443 43.9683C211.236 43.0597 211.138 42.1301 211.149 41.1986V35.4211H209.792V32.5432H211.432L215.003 32.1753V40.214C214.995 40.861 215.027 41.5078 215.101 42.1507ZM211.334 27.7069C211.837 27.3743 212.436 27.2147 213.038 27.2525C213.631 27.2154 214.219 27.3752 214.71 27.7069C214.9 27.8579 215.053 28.0497 215.159 28.2679C215.264 28.4861 215.319 28.7252 215.319 28.9674C215.319 29.2096 215.264 29.4487 215.159 29.6669C215.053 29.8851 214.9 30.0768 214.71 30.2278C214.219 30.5595 213.631 30.7194 213.038 30.6822C212.436 30.7201 211.837 30.5605 211.334 30.2278C211.135 30.0864 210.975 29.8972 210.869 29.6779C210.763 29.4585 210.713 29.216 210.726 28.9728C210.716 28.7284 210.767 28.4854 210.873 28.2649C210.979 28.0443 211.137 27.8528 211.334 27.7069Z" fill="#005C87"/>
<path d="M228.746 32.6292C229.748 32.975 230.601 33.6504 231.167 34.5442C231.936 35.8793 232.291 37.4116 232.187 38.9477V40.0296C232.267 41.4804 231.956 42.9262 231.286 44.2167C230.768 45.1498 229.938 45.8731 228.941 46.2615C227.896 46.63 226.793 46.8095 225.685 46.7917C224.631 46.8046 223.581 46.6624 222.569 46.3697C221.563 46.0317 220.707 45.3544 220.148 44.4547C219.379 43.1196 219.024 41.5873 219.128 40.0512V38.9693C219.047 37.5171 219.362 36.0702 220.04 34.7822C220.534 33.8453 221.346 33.1132 222.33 32.7158C223.376 32.3486 224.479 32.1691 225.587 32.1856C226.656 32.175 227.721 32.3246 228.746 32.6292ZM223.514 42.5072C223.726 42.8826 224.047 43.1861 224.433 43.3788C224.82 43.5716 225.256 43.6448 225.685 43.5891C226.119 43.6399 226.559 43.5586 226.947 43.3559C227.334 43.1531 227.651 42.8385 227.856 42.4531C228.249 41.5156 228.434 40.5042 228.399 39.4886C228.448 38.4526 228.243 37.4201 227.802 36.4809C227.566 36.1215 227.244 35.8263 226.865 35.622C226.486 35.4177 226.061 35.3107 225.631 35.3107C225.2 35.3107 224.775 35.4177 224.396 35.622C224.017 35.8263 223.695 36.1215 223.459 36.4809C223.066 37.4184 222.881 38.4297 222.917 39.4454C222.86 40.4994 223.065 41.5511 223.514 42.5072Z" fill="#005C87"/>
<path d="M242.652 36.2317C242.468 35.9391 242.207 35.7031 241.896 35.5503C241.585 35.3974 241.238 35.3337 240.893 35.3662C240.459 35.3596 240.028 35.4521 239.634 35.6367C239.288 35.7933 238.963 35.9933 238.668 36.2317C238.527 36.3384 238.399 36.462 238.288 36.5996V46.456H234.445V32.7155L238.288 32.3476V34.0462C238.288 33.9813 238.494 33.7866 238.918 33.4728C239.393 33.1118 239.91 32.8102 240.459 32.5748C241.064 32.3068 241.719 32.1704 242.381 32.1745C243.045 32.1102 243.715 32.2076 244.333 32.4582C244.952 32.7089 245.5 33.1053 245.93 33.6135C246.735 34.8846 247.115 36.3768 247.016 37.8763V40.4945C247.014 41.1093 247.05 41.7236 247.124 42.3338C247.153 42.6814 247.277 43.0145 247.483 43.2967C247.586 43.403 247.712 43.4852 247.85 43.5376C247.989 43.59 248.138 43.6111 248.286 43.5997C248.62 43.6044 248.949 43.5223 249.241 43.3616C249.489 43.2442 249.713 43.0829 249.903 42.8856L250.718 44.7898C250.569 45.0089 250.39 45.2057 250.186 45.374C249.779 45.7515 249.322 46.0718 248.829 46.3261C248.274 46.6199 247.654 46.7688 247.027 46.7589C246.441 46.8222 245.849 46.7257 245.313 46.48C244.778 46.2342 244.32 45.8482 243.987 45.3632C243.392 44.2424 243.108 42.9839 243.162 41.7171V38.9041C243.215 37.9851 243.039 37.0674 242.652 36.2317Z" fill="#005C87"/>
<path d="M263.201 42.1494C263.237 42.5341 263.364 42.9048 263.571 43.2314C263.665 43.3555 263.789 43.4548 263.931 43.5208C264.073 43.5867 264.228 43.6174 264.385 43.61C264.801 43.6018 265.21 43.5098 265.59 43.3396C265.924 43.2108 266.238 43.036 266.523 42.8202L267.337 44.7352C266.816 45.3455 266.178 45.8458 265.459 46.2067C264.77 46.5698 264.003 46.7627 263.223 46.7693C262.45 46.8347 261.677 46.6357 261.031 46.2051C260.386 45.7744 259.907 45.1378 259.673 44.3998C259.249 45.0621 258.695 45.6324 258.045 46.0768C257.383 46.5101 256.612 46.75 255.82 46.7693H255.331C254.525 46.8454 253.714 46.6684 253.014 46.2629C252.313 45.8575 251.757 45.2439 251.423 44.508C250.713 42.8889 250.361 41.1359 250.392 39.3689C250.297 37.5272 250.738 35.6975 251.662 34.0999C252.127 33.4402 252.758 32.9141 253.492 32.5741C254.225 32.2342 255.036 32.0925 255.842 32.1632C256.486 32.1669 257.123 32.307 257.709 32.5744C258.27 32.8027 258.791 33.1206 259.25 33.5156V32.3796L263.104 32.7475V40.2128C263.095 40.8597 263.128 41.5066 263.201 42.1494ZM256.808 35.3766C256.512 35.3668 256.218 35.4252 255.949 35.5472C255.68 35.6691 255.442 35.8514 255.255 36.0798C254.868 36.5722 254.597 37.1455 254.463 37.7568C254.314 38.3698 254.238 38.9979 254.235 39.6285C254.228 40.5552 254.429 41.4717 254.821 42.3117C254.961 42.6441 255.188 42.9329 255.478 43.148C255.769 43.3631 256.111 43.4965 256.471 43.5343H256.667C257.188 43.5244 257.695 43.3586 258.121 43.0582C258.563 42.7511 258.933 42.3526 259.207 41.8898V36.4801C258.906 36.1393 258.538 35.865 258.125 35.675C257.711 35.4849 257.263 35.3832 256.808 35.3766Z" fill="#005C87"/>
<path d="M271.875 42.1278C271.912 42.512 272.039 42.8823 272.244 43.2097C272.338 43.3345 272.462 43.4344 272.604 43.5004C272.746 43.5664 272.902 43.5967 273.058 43.5884C273.471 43.5811 273.877 43.489 274.252 43.3179C274.585 43.1914 274.899 43.0203 275.186 42.8094L276 44.7136C275.481 45.3164 274.846 45.8094 274.133 46.1634C273.442 46.5226 272.676 46.7153 271.897 46.726C270.991 46.7816 270.098 46.5001 269.389 45.9362C268.803 45.4081 268.393 44.7131 268.217 43.9454C268.01 43.0406 267.911 42.1145 267.923 41.1865V27.7273L271.788 27.3486V40.2019C271.776 40.8451 271.805 41.4883 271.875 42.1278Z" fill="#005C87"/>
</g>
<defs>
<clipPath id="clip0_71_1487">
<rect width="276" height="110.4" fill="white" transform="translate(0 0.668457)"/>
</clipPath>
</defs>
</svg>
