<svg width="25" height="24" viewBox="0 0 25 24" fill="none" xmlns="http://www.w3.org/2000/svg">
<path d="M23.8491 9.70998C23.8986 8.27864 23.5855 6.858 22.9391 5.57998C22.5005 5.05558 21.8918 4.70169 21.2191 4.57998C18.4366 4.32751 15.6426 4.22403 12.8491 4.26998C10.0658 4.22194 7.28183 4.32208 4.50912 4.56998C3.96094 4.6697 3.45364 4.92683 3.04912 5.30998C2.14912 6.13998 2.04912 7.55998 1.94912 8.75998C1.80403 10.9175 1.80403 13.0824 1.94912 15.24C1.97805 15.9154 2.07861 16.5858 2.24912 17.24C2.36969 17.745 2.61364 18.2123 2.95912 18.6C3.36639 19.0034 3.8855 19.2752 4.44912 19.38C6.60503 19.6461 8.77734 19.7564 10.9491 19.71C14.4491 19.76 17.5191 19.71 21.1491 19.43C21.7266 19.3316 22.2603 19.0595 22.6791 18.65C22.9591 18.3699 23.1682 18.0271 23.2891 17.65C23.6467 16.5526 23.8224 15.4041 23.8091 14.25C23.8491 13.69 23.8491 10.31 23.8491 9.70998ZM10.5891 14.85V8.65998L16.5091 11.77C14.8491 12.69 12.6591 13.73 10.5891 14.85Z" fill="white"/>
</svg>
